<svg xmlns="http://www.w3.org/2000/svg"
 xmlns:xlink="http://www.w3.org/1999/xlink"
 width="40px" height="45px"  viewBox="0 0 40 45">
<path fill-rule="evenodd"  fill="#bb9c66"
 d="M37.108948,13.803711 C36.99402,13.708008 36.874084,13.660645 36.750366,13.654785 C36.89319,12.896973 36.74536,12.397461 36.392517,12.104004 C35.950012,11.736328 35.426636,12.067871 34.6698,12.938965 C34.6698,12.938965 34.6463,12.919434 34.6463,12.919434 C34.653137,12.925293 34.66382,12.920898 34.632996,12.959473 C34.397766,13.2578125 34.06494,13.314941 33.77063,13.070801 C33.56842,12.90332 33.494385,12.583496 33.627563,12.416016 C33.627563,12.416016 33.921997,12.04541 33.921997,12.04541 C34.351257,11.504883 33.944763,10.836914 33.410828,10.393555 C33.410828,10.393555 27.135925,5.180176 27.135925,5.180176 C26.602783,4.7373047 26.320984,4.8374023 25.892761,5.376953 C25.892761,5.376953 25.528015,5.835449 25.528015,5.835449 C25.435242,5.9526367 24.977112,5.698242 24.813477,5.5620117 C24.519836,5.3183594 24.330688,4.8945312 24.567627,4.5966797 C24.59784,4.5585938 24.513916,4.5024414 24.521729,4.508789 C24.521729,4.508789 24.499939,4.4907227 24.499939,4.4907227 C25.178467,3.5541992 25.389954,2.9638672 24.946472,2.5957031 C24.59375,2.302246 24.05304,2.2988281 23.35852,2.5961914 C23.326355,2.472168 23.272583,2.3432617 23.158386,2.2475586 C22.223633,1.4707031 19.876038,2.8447266 17.904419,5.32666 C15.93335,7.8085938 15.096741,10.444336 16.031555,11.221191 C16.146484,11.316406 16.2677,11.362305 16.391235,11.368652 C16.249695,12.125 16.324707,12.71582 16.678406,13.009766 C17.137451,13.391113 17.656128,13.052734 18.405945,12.175781 C18.405945,12.175781 18.426086,12.192871 18.426086,12.192871 C18.476562,12.234863 19.192993,12.104004 19.44928,12.316406 C19.612122,12.45166 19.959717,12.84668 19.867615,12.962891 C19.867615,12.962891 19.48468,13.444824 19.48468,13.444824 C19.228516,13.767578 19.003662,14.05127 19.100342,14.428223 C19.250427,13.828125 21.048096,11.3671875 22.709534,9.275391 C24.54596,6.9628906 25.923279,5.571289 25.923279,5.571289 C26.062805,5.855957 24.454163,7.7998047 23.060486,9.5546875 C21.713196,11.250488 19.326965,14.508301 18.938232,14.521484 C19.01416,14.720215 19.066528,14.974121 19.240906,15.119629 C19.240906,15.119629 20.44812,16.122559 20.44812,16.122559 C20.314026,16.010742 20.134766,16.013184 20.027466,16.14746 C19.920654,16.282227 19.956055,16.463867 20.089294,16.574707 C20.089294,16.574707 20.231445,16.691895 20.231445,16.691895 C20.139954,16.61621 19.759338,16.989746 19.553223,17.249023 C18.612793,18.433105 18.14038,19.949707 18.139282,21.09375 C18.287598,20.828613 18.612793,20.183105 18.81543,19.270508 C19.089722,18.043945 19.872803,16.551758 20.436218,17.02002 C20.999023,17.487793 19.641235,18.314453 19.312195,19.36084 C19.041931,20.214355 18.391296,20.904297 18.161316,21.129883 C18.161804,21.22754 18.167786,21.321777 18.176819,21.41455 C17.529541,21.069824 16.959717,20.989746 16.741089,21.265625 C16.580261,21.467773 16.642761,21.8208 16.86914,22.22168 C16.313477,22.274902 15.778931,22.54541 15.404724,23.016602 C14.763733,23.822754 14.011902,26.1958 12.185608,28.495117 C10.303528,30.865234 4.3963623,36.87744 3.2440796,38.328125 C1.9240723,39.990234 1.5927734,41.953125 2.505249,42.71045 C2.505249,42.71045 2.5447998,42.73877 2.5447998,42.73877 C3.4569092,43.496582 5.2695923,42.759766 6.5898438,41.097168 C7.741638,39.64746 12.289001,32.495605 14.171082,30.126465 C15.998169,27.827637 18.105652,26.598145 18.74585,25.791992 C19.119812,25.32129 19.269287,24.730469 19.20636,24.163574 C19.63678,24.308105 19.987976,24.297363 20.14856,24.095215 C20.366821,23.820312 20.174927,23.266113 19.711792,22.688477 C20.848206,22.565918 22.37561,21.765625 23.41504,20.45752 C23.621155,20.197754 23.900696,19.740234 23.809265,19.664062 C23.809265,19.664062 23.951233,19.782227 23.951233,19.782227 C24.085327,19.894043 24.282959,19.868652 24.389343,19.734863 C24.496582,19.600098 24.478394,19.396484 24.34497,19.286133 C24.34497,19.286133 25.618591,20.34375 25.618591,20.34375 C26.151733,20.786133 27.084656,20.653809 27.513428,20.114258 C27.513428,20.114258 27.824707,19.722656 27.824707,19.722656 C27.957153,19.555664 28.238098,19.61621 28.439331,19.783203 C28.695374,19.996094 28.494629,20.557617 28.546143,20.600098 C28.546143,20.600098 28.56604,20.61621 28.56604,20.61621 C27.879883,21.546387 27.664124,22.132812 28.124023,22.515137 C28.476746,22.807617 29.054688,22.76709 29.750061,22.468262 C29.7807,22.591797 29.853516,22.698242 29.968323,22.794434 C30.903137,23.57129 33.25885,22.186523 35.230347,19.70459 C37.201782,17.222168 38.04364,14.580566 37.108948,13.803711 ZM15.858215,9.418457 C15.858215,9.418457 17.053528,7.1972656 18.53424,5.2490234 C20.015259,3.3012695 21.441162,2.3886719 21.441162,2.3886719 C18.785767,4.848633 15.858215,9.418457 15.858215,9.418457 ZM21.96521,4.616211 C21.48407,4.2841797 20.90039,5.2539062 19.495544,6.605957 C19.495544,6.605957 19.495544,6.605957 19.495544,6.605957 C17.798706,8.771484 16.116882,11.145996 16.140015,11.038086 C16.164734,10.92334 17.805054,7.8901367 19.39209,5.8930664 C20.976562,3.8964844 22.848755,2.1708984 22.848755,2.1708984 C22.944946,2.1791992 22.956665,2.2514648 22.902039,2.3769531 C23.05371,2.359375 23.08136,2.5410156 23.197327,2.6987305 C23.474121,3.071289 23.459595,4.4711914 23.459595,4.4711914 C23.231812,5.2626953 22.446228,4.948242 21.96521,4.616211 ZM22.198975,6.7719727 C22.087524,6.6796875 22.316956,6.203125 22.709778,5.708496 C23.103394,5.2128906 23.511719,4.8862305 23.623169,4.979492 C23.73462,5.0717773 23.50586,5.5473633 23.112366,6.0429688 C22.719055,6.538086 22.310059,6.8632812 22.198975,6.7719727 ZM23.182312,7.2163086 C23.003479,7.0683594 23.066345,6.6884766 23.321106,6.368164 C23.575928,6.046875 23.925964,5.9067383 24.104614,6.055176 C24.28241,6.203125 24.219666,6.5820312 23.9646,6.9033203 C23.709717,7.223633 23.35968,7.364258 23.182312,7.2163086 ZM17.087769,21.662598 C17.278015,21.420898 17.546082,21.320312 17.685791,21.436523 C17.825317,21.553223 17.784058,21.841309 17.592957,22.082031 C17.401611,22.323242 17.133972,22.42334 16.994263,22.308105 C16.855286,22.191895 16.896912,21.902832 17.087769,21.662598 ZM15.430359,25.802734 C13.680054,27.797363 11.925049,29.416992 8.016296,34.759277 C4.1082153,40.10205 3.2914429,41.148926 2.7843018,40.728027 C2.2766113,40.305664 4.073181,38.010742 5.287964,36.51758 C6.5039673,35.024902 7.4091187,34.526367 10.452332,30.898438 C13.495728,27.271484 15.3272705,25.10791 15.639587,24.013672 C15.950989,22.920898 16.266052,22.641113 16.690918,22.69043 C17.253235,22.753906 17.182251,23.807617 15.430359,25.802734 ZM25.653992,19.381836 C25.653992,19.381836 25.38971,19.567871 22.671753,17.30957 C20.008728,15.097168 20.370178,14.992676 20.370178,14.992676 C20.722229,15.07373 21.18805,15.028809 21.429932,14.724609 C21.769836,14.296387 27.109192,7.573242 27.449524,7.1450195 C27.762451,6.7509766 27.57611,6.0634766 27.240295,5.7021484 C27.277283,5.726074 27.244873,5.6879883 27.278442,5.7163086 C27.278442,5.7163086 27.498291,5.492676 30.223755,7.757324 C33.08374,10.133301 32.86438,10.356934 32.86438,10.356934 C32.898376,10.384766 33.02887,10.503906 33.059143,10.535645 C32.642883,10.272949 32.22229,10.457031 31.909424,10.8515625 C31.569153,11.279297 26.230286,18.001465 25.889893,18.429688 C25.648376,18.733887 25.503113,19.04541 25.653992,19.381836 ZM25.914368,20.207031 C25.774048,19.921875 27.36383,17.960938 28.757141,16.206543 C30.15033,14.453125 32.578613,11.100586 32.84137,11.317871 C33.102783,11.534668 31.002808,14.220703 29.16626,16.533203 C27.329346,18.845703 25.914368,20.207031 25.914368,20.207031 ZM32.0119,14.552246 C31.84552,14.4140625 31.91632,14.040527 32.171753,13.721191 C32.426636,13.399902 32.76819,13.251953 32.93457,13.390625 C33.101013,13.529297 33.029602,13.900879 32.774963,14.221191 C32.52008,14.541992 32.178345,14.69043 32.0119,14.552246 ZM33.704224,16.32959 C33.818542,16.018555 35.09015,14.572754 34.833984,14.29248 C34.690063,14.134766 34.542725,14.254883 34.377625,14.466309 C34.341248,14.515137 34.305054,14.562988 34.26709,14.614258 C34.16974,14.751465 34.06604,14.90625 33.951904,15.047852 C33.91748,15.089355 33.887207,15.12207 33.858826,15.151367 C33.520996,15.586914 33.15216,16.052734 32.800964,16.49707 C31.642822,17.955566 30.76056,18.821777 30.76056,18.821777 C30.684998,18.651367 31.754395,17.472168 32.632874,16.365723 C33.042603,15.848145 33.66333,15.16748 34.157227,14.544922 C34.157654,14.544922 34.15802,14.543945 34.158752,14.543457 C34.158752,14.543457 34.804016,13.374023 35.14856,13.285645 C35.171204,13.2734375 35.1557,13.240723 35.165955,13.250488 C35.48529,13.277344 35.970642,13.850098 35.112793,14.930176 C34.254944,16.009766 33.591553,16.641113 33.704224,16.32959 Z"/>
</svg>