<svg xmlns="http://www.w3.org/2000/svg"
 xmlns:xlink="http://www.w3.org/1999/xlink"
 width="143px" height="37px"  viewBox="0 0 143 37">
<path fill-rule="evenodd"  fill="#bb9c66"
 d="M140.64563,25.47998 C140.42426,25.45752 140.22003,25.583496 140.03217,25.857422 C139.84381,26.131836 139.6947,26.350098 139.58441,26.509766 C139.00922,27.310547 138.44012,28.134766 137.87665,28.980469 C137.31262,29.827637 136.68726,30.617676 136.00244,31.34961 C135.84747,31.509277 135.67566,31.687012 135.4884,31.881348 C135.29993,32.07666 135.0951,32.24756 134.87482,32.395996 C134.6532,32.54492 134.4267,32.659668 134.19458,32.739258 C133.96252,32.819336 133.7248,32.825684 133.48138,32.756348 C133.2381,32.68799 133.11102,32.50537 133.10016,32.20703 C133.08868,31.910156 133.12793,31.578613 133.21625,31.211914 C133.30432,30.845703 133.41559,30.496582 133.54791,30.16504 C133.6806,29.833008 133.78033,29.609863 133.84613,29.495605 C134.02332,29.084473 134.21619,28.671875 134.4267,28.260254 C134.63666,27.848633 134.86316,27.436523 135.10693,27.024414 C135.8805,25.651367 136.75378,24.29004 137.72736,22.939941 C137.97034,22.620117 138.21326,22.305664 138.45703,21.996582 C138.70001,21.687988 138.95416,21.373535 139.21967,21.052734 C139.39618,20.82373 139.61743,20.566406 139.88306,20.280273 C140.14838,19.995117 140.29205,19.691406 140.31421,19.370605 C140.33594,19.050781 140.23651,18.845215 140.01581,18.75293 C139.79443,18.66211 139.56238,18.649902 139.31891,18.718262 C138.47864,18.970215 137.64917,19.14209 136.83142,19.233398 C136.19861,19.3042 135.57959,19.188477 134.97375,18.890137 C134.40503,18.568848 133.92438,17.810547 133.31091,18.725586 C133.20825,18.851074 133.11029,18.996094 133.01727,19.16455 C132.89441,19.374512 132.73474,19.890137 132.58228,20.476562 C132.58173,20.47998 132.58075,20.481934 132.5799,20.485352 C131.56781,23.79248 124.55322,33.340332 121.40906,33.340332 C120.77069,33.340332 120.30133,33.097656 119.954834,32.71631 C119.871826,32.61328 119.79474,32.50537 119.73395,32.378906 C119.589905,32.08203 119.512695,31.75586 119.50183,31.400879 C119.49005,31.046875 119.53998,30.686035 119.65106,30.320312 C119.80536,29.747559 119.9989,29.284668 120.23151,28.9292 C120.463745,28.575195 120.73395,28.283203 121.04401,28.054688 C121.35339,27.825195 121.712585,27.631836 122.121826,27.470215 C122.53082,27.310547 122.98938,27.127441 123.49817,26.921387 C123.94025,26.738281 124.44879,26.509766 125.023926,26.234375 C125.598755,25.95996 126.168335,25.634277 126.731995,25.256836 C127.29596,24.879395 127.826416,24.467285 128.32404,24.021973 C128.82184,23.575195 129.22003,23.094727 129.5185,22.57959 C129.81702,22.06543 129.98785,21.515625 130.03253,20.932129 C130.0763,20.348633 129.93274,19.748047 129.60126,19.130371 C129.29108,18.535645 128.61694,18.294922 127.578,18.409668 C126.62695,18.523926 125.692505,18.78125 124.77539,19.18164 C123.85736,19.58252 123.01184,20.06836 122.23804,20.640625 C120.97778,21.556152 119.8996,22.626465 119.00427,23.850586 C118.14703,25.021484 117.4314,26.283691 116.84766,27.632812 C116.628784,27.9458 116.404175,28.248535 116.168396,28.534668 C115.792175,28.993164 115.41034,29.422363 115.02399,29.821777 C114.6369,30.222168 114.255554,30.628418 113.879456,31.041016 C113.50336,31.4292 113.127686,31.8125 112.75195,32.19043 C112.37573,32.567383 111.933716,32.847656 111.42517,33.03076 C111.2478,33.07666 111.076965,33.08838 110.91113,33.06543 C110.745544,33.04248 110.66223,32.916992 110.66223,32.68799 C110.68439,32.413086 110.75067,32.13867 110.86127,31.86377 C111.03833,31.361328 111.23706,30.875 111.45819,30.405273 C111.67908,29.937012 111.92285,29.473633 112.18787,29.015137 C112.82922,27.848633 113.459595,26.67627 114.07837,25.49707 C114.69757,24.31836 115.36096,23.145996 116.0686,21.979004 C116.77612,20.835938 117.45581,19.686035 118.1084,18.530273 C118.76044,17.374023 119.3963,16.19043 120.0155,14.977539 C120.3916,14.291016 120.76721,13.604492 121.14343,12.917969 C121.519226,12.231445 121.92822,11.567871 122.37073,10.927734 C122.569336,10.65332 122.76849,10.366699 122.96759,10.069336 C123.16669,9.772461 123.34894,9.458008 123.51477,9.125488 C123.68085,8.794434 123.80768,8.456055 123.896484,8.112793 C123.98456,7.7695312 123.99579,7.4262695 123.929504,7.083008 C123.84094,6.6030273 123.641846,6.3745117 123.33252,6.3969727 C123.022766,6.419922 122.70209,6.465332 122.37073,6.5341797 C122.17163,6.580078 121.95026,6.5913086 121.70746,6.5688477 C121.46362,6.5463867 121.214966,6.5405273 120.960815,6.5507812 C120.70654,6.5634766 120.468994,6.597168 120.24805,6.654297 C120.02667,6.711914 119.83856,6.831543 119.68396,7.0146484 C119.573,7.152832 119.52338,7.3183594 119.53485,7.5126953 C119.545715,7.7070312 119.53998,7.8847656 119.51825,8.044922 C119.47357,8.273926 119.423645,8.484863 119.36914,8.679199 C119.31348,8.873535 119.241455,9.062988 119.15338,9.246094 C118.97601,9.657227 118.77167,10.047363 118.53955,10.412598 C118.30737,10.778809 118.08063,11.156738 117.85986,11.544922 C117.439514,12.27832 117.024536,13.016113 116.61603,13.758789 C116.20654,14.503418 115.80347,15.241211 115.40521,15.972656 C115.16174,16.430664 114.918945,16.894043 114.67554,17.363281 C114.43207,17.83252 114.15576,18.271973 113.846436,18.684082 C113.66937,18.913086 113.526,19.079102 113.415344,19.18164 C113.30463,19.284668 113.19397,19.336426 113.08386,19.336426 C112.97272,19.336426 112.85126,19.290527 112.71893,19.199219 C112.58612,19.10791 112.420105,18.993164 112.221375,18.855469 C111.8009,18.558594 111.331116,18.415527 110.81134,18.426758 C110.29169,18.438965 109.772095,18.530273 109.252686,18.70166 C108.73291,18.873535 108.229614,19.096191 107.74335,19.370605 C107.25714,19.64502 106.83667,19.908691 106.483215,20.160645 C105.289185,21.006836 104.1449,22.002441 103.05023,23.145996 C102.122925,24.1167 101.34277,25.155273 100.693115,26.255371 C100.61682,26.380371 100.55658,26.475586 100.51288,26.543945 C100.203125,27.047852 99.87164,27.527832 99.517944,27.98584 C99.164,28.444336 98.799194,28.901367 98.42346,29.358887 C97.98096,29.885254 97.53894,30.388184 97.096924,30.86914 C96.65442,31.34961 96.18976,31.830078 95.70398,32.31006 C95.61493,32.378906 95.49341,32.481445 95.33917,32.61963 C95.18408,32.756348 95.018005,32.88867 94.84137,33.013184 C94.66388,33.140625 94.48743,33.231934 94.310974,33.288574 C94.13324,33.34619 93.979004,33.340332 93.84619,33.271484 C93.66919,33.180664 93.581055,33.04248 93.581055,32.859863 C93.581055,32.676758 93.602905,32.516113 93.64758,32.378906 C93.824036,31.578613 94.13324,30.823242 94.57599,30.11377 C95.018005,29.404297 95.438354,28.71875 95.83618,28.054688 C96.03522,27.733887 96.223206,27.414062 96.40015,27.09375 C96.57727,26.773438 96.75372,26.453125 96.930725,26.131836 C97.54993,25.033691 98.15802,23.941406 98.755005,22.854492 C99.35248,21.768066 99.9931,20.698242 100.678894,19.64502 C100.72278,19.57666 100.77832,19.48584 100.84473,19.370605 C100.91101,19.256348 100.96631,19.14746 101.01044,19.044434 C101.05469,18.941406 101.06549,18.833496 101.04382,18.718262 C101.02118,18.60498 100.95538,18.512695 100.84473,18.443848 C100.667725,18.32959 100.49066,18.3125 100.31415,18.393066 C100.13666,18.473145 99.960205,18.512695 99.7832,18.512695 C99.40698,18.535645 99.01489,18.535645 98.605774,18.512695 C98.196594,18.490234 97.8266,18.546875 97.49457,18.684082 C97.22974,18.798828 97.03052,18.970215 96.897705,19.199219 C96.85303,19.245605 96.77014,19.365234 96.64929,19.558594 C96.52722,19.753906 96.477295,19.874023 96.49994,19.919434 C96.32239,19.667969 96.17328,19.404785 96.05194,19.130371 C95.93036,18.855469 95.71466,18.672852 95.40546,18.581055 C95.206116,18.512695 95.001465,18.467285 94.791626,18.443848 C94.58099,18.421387 94.37677,18.398438 94.17822,18.375488 C93.73547,18.375488 93.31,18.455566 92.90088,18.615723 C92.49188,18.776367 92.08832,18.936523 91.69055,19.096191 C91.2038,19.279785 90.74518,19.496582 90.314026,19.748047 C89.88275,20.000977 89.45691,20.263184 89.03693,20.537598 C88.74927,20.743652 88.47333,20.949707 88.207825,21.155273 C87.94226,21.361328 87.68811,21.578613 87.44513,21.807617 C86.56012,22.608887 85.77539,23.478027 85.089905,24.416016 C84.692444,24.95996 84.314575,25.523438 83.94739,26.097656 C83.83728,26.257812 83.73877,26.401855 83.66443,26.509766 C83.08911,27.310547 82.5199,28.134766 81.95648,28.980469 C81.392395,29.827637 80.76727,30.617676 80.082275,31.34961 C79.92743,31.509277 79.75568,31.687012 79.568115,31.881348 C79.37988,32.07666 79.17511,32.24756 78.954834,32.395996 C78.73297,32.54492 78.50659,32.659668 78.2746,32.739258 C78.04248,32.819336 77.80481,32.825684 77.5614,32.756348 C77.31793,32.68799 77.190735,32.50537 77.17993,32.20703 C77.1687,31.910156 77.2077,31.578613 77.296265,31.211914 C77.38434,30.845703 77.49536,30.496582 77.627625,30.16504 C77.76044,29.833008 77.86023,29.609863 77.92615,29.495605 C78.10315,29.084473 78.2962,28.671875 78.50659,28.260254 C78.71661,27.848633 78.943115,27.436523 79.18689,27.024414 C79.96033,25.651367 80.8338,24.29004 81.80713,22.939941 C82.05005,22.620117 82.29303,22.305664 82.536804,21.996582 C82.779785,21.687988 83.03406,21.373535 83.29962,21.052734 C83.476074,20.82373 83.69733,20.566406 83.96289,20.280273 C84.22839,19.995117 84.37201,19.691406 84.394104,19.370605 C84.41565,19.050781 84.31647,18.845215 84.09558,18.75293 C83.87433,18.66211 83.642334,18.649902 83.398926,18.718262 C82.558655,18.970215 81.72894,19.14209 80.911255,19.233398 C80.27875,19.3042 79.659546,19.188477 79.05365,18.890137 C78.484985,18.568848 78.00433,17.810547 77.39093,18.725586 C77.28827,18.851074 77.19025,18.996094 77.097046,19.16455 C76.97424,19.374512 76.814514,19.890137 76.66205,20.476562 C76.66168,20.47998 76.66077,20.481934 76.65991,20.485352 C75.64758,23.79248 69.62787,32.722168 66.48358,32.722168 C66.32861,32.722168 66.18323,32.706055 66.04303,32.682617 C65.93848,32.65332 65.84094,32.61084 65.753784,32.55127 C65.55487,32.413086 65.410706,32.20703 65.322754,31.933105 C65.23419,31.658203 65.245056,31.327148 65.35553,30.9375 C65.46631,30.43457 65.6427,29.953125 65.88672,29.495605 C66.12958,29.038086 66.39465,28.591797 66.68219,28.157227 C67.8103,26.463867 68.88257,24.759277 69.899414,23.043457 C70.91638,21.327148 71.94458,19.59961 72.984436,17.860352 C73.20532,17.47168 73.44855,17.134277 73.71411,16.848145 C73.979126,16.562012 74.344055,16.418945 74.80859,16.418945 C75.14014,16.396484 75.49927,16.413574 75.88635,16.470215 C76.273315,16.52832 76.621155,16.464844 76.93146,16.281738 C77.08588,16.19043 77.21863,16.006836 77.329285,15.732422 C77.43976,15.458008 77.41736,15.251465 77.26288,15.115234 C77.129944,15.023926 76.969604,14.972168 76.78235,14.960449 C76.59387,14.94873 76.39465,14.94873 76.18475,14.960449 C75.97479,14.972168 75.77051,14.983398 75.57141,14.994629 C75.37219,15.005859 75.206604,14.990234 75.07385,14.942871 C75.250854,14.303223 75.54938,13.690918 75.96954,13.107422 C76.38898,12.5234375 76.75397,11.957031 77.06427,11.407715 C77.35083,10.905273 77.644104,10.412598 77.943054,9.932129 C78.24158,9.451172 78.47894,8.94873 78.65582,8.421875 C78.74396,8.193359 78.83844,7.935547 78.937744,7.6499023 C79.03766,7.3632812 79.03143,7.1064453 78.92145,6.8774414 C78.74396,6.557129 78.48999,6.4033203 78.15875,6.414551 C77.82684,6.4262695 77.52838,6.45459 77.26288,6.4995117 C77.041626,6.5463867 76.798645,6.557129 76.5332,6.5341797 C76.26819,6.5112305 76.00256,6.4995117 75.737,6.4995117 C75.471985,6.4995117 75.21735,6.522461 74.97443,6.5688477 C74.73108,6.614258 74.52118,6.7055664 74.344055,6.8432617 C74.18921,6.9799805 74.06213,7.158203 73.96271,7.375 C73.863525,7.5927734 73.774475,7.821289 73.697205,8.061035 C73.61963,8.302246 73.548096,8.541504 73.48157,8.782227 C73.41577,9.022461 73.349365,9.234375 73.28296,9.416992 C73.08374,9.897461 72.8681,10.366699 72.63599,10.824219 C72.40399,11.281738 72.16571,11.740234 71.923035,12.197266 C71.79022,12.449219 71.64612,12.71875 71.4917,13.003906 C71.33673,13.290527 71.16022,13.56543 70.96112,13.827637 C70.762024,14.09082 70.54065,14.314453 70.29773,14.496582 C70.05426,14.680176 69.778076,14.794922 69.46875,14.840332 C69.313416,14.862793 69.10919,14.856934 68.8548,14.822754 C68.60077,14.7890625 68.34601,14.776855 68.092224,14.7890625 C67.83746,14.800781 67.60547,14.852051 67.39557,14.942871 C67.18506,15.034668 67.05835,15.206543 67.0141,15.458008 C66.96948,15.732422 67.03589,15.916016 67.21344,16.006836 C67.38983,16.098633 67.59979,16.149902 67.8432,16.161621 C68.08673,16.17334 68.34076,16.18457 68.606384,16.1958 C68.8714,16.207031 69.070435,16.270508 69.20325,16.385254 C69.0484,16.453125 68.93207,16.580078 68.8548,16.762207 C68.77722,16.9458 68.70569,17.105469 68.63916,17.243164 C68.44055,17.608887 68.17505,17.997559 67.8432,18.409668 C66.78198,19.896973 65.77026,21.4292 64.80859,23.009277 C64.07843,24.20752 63.394287,25.424316 62.73401,26.649414 C62.72412,26.65918 62.710876,26.672363 62.701843,26.681152 C62.325806,27.11621 61.99945,27.58496 61.723694,28.088379 C61.446777,28.591797 61.131348,29.072266 60.77838,29.530273 C60.4682,29.964844 60.14801,30.388184 59.816467,30.800293 C59.48462,31.211914 59.10852,31.589844 58.688538,31.933105 C58.378784,32.184082 58.06958,32.418945 57.759644,32.63623 C57.44995,32.854004 57.096497,32.97412 56.69867,32.99756 C56.300415,33.04248 56.00177,32.910645 55.80316,32.60205 C55.604004,32.29297 55.449097,31.966797 55.338623,31.623535 C55.20581,31.303223 55.13379,30.94873 55.122986,30.560547 C55.11151,30.170898 55.095215,29.793457 55.073486,29.427246 C55.073486,28.901367 55.08435,28.42627 55.106384,28.00293 C55.128235,27.580078 55.305603,27.150879 55.637024,26.71582 C56.211914,25.938477 56.814575,25.148926 57.444946,24.347168 C58.075073,23.546875 58.809875,22.905762 59.65039,22.425781 C59.849487,22.333984 60.05945,22.242188 60.280823,22.150879 C60.501465,22.05957 60.72284,21.996582 60.944214,21.961426 C61.164856,21.927246 61.380493,21.944824 61.59088,22.013184 C61.800842,22.082031 61.993958,22.219238 62.171204,22.425781 C62.3479,22.677734 62.519653,22.797852 62.685364,22.786133 C62.851196,22.774414 63.044556,22.677734 63.26593,22.49414 C63.44232,22.333984 63.635925,22.088379 63.846313,21.75586 C64.056274,21.424805 64.22211,21.064453 64.34393,20.674805 C64.46503,20.285645 64.52045,19.91504 64.509766,19.558594 C64.49829,19.205566 64.36035,18.924805 64.09503,18.718262 C63.785095,18.467285 63.426025,18.353027 63.016785,18.375488 C62.607666,18.398438 62.248596,18.467285 61.939087,18.581055 C61.452515,18.764648 60.98828,19.050781 60.546143,19.439453 C59.77179,20.080078 59.08069,20.80127 58.47284,21.601562 C57.864807,22.40332 57.23999,23.192383 56.599365,23.969727 C56.44403,24.15332 56.294556,24.325195 56.151123,24.484863 C56.00702,24.64502 55.869568,24.816895 55.736755,25.000488 C55.604004,25.183105 55.515503,25.251465 55.47119,25.205078 C55.426697,25.160156 55.410156,25.062988 55.421448,24.914062 C55.4328,24.764648 55.454834,24.599121 55.487732,24.416016 C55.52124,24.23291 55.53772,24.106934 55.53772,24.038574 C55.62567,23.443848 55.769775,22.860352 55.968994,22.288574 C56.16809,21.716309 56.377502,21.144531 56.599365,20.571777 C56.62097,20.480957 56.66516,20.36084 56.731567,20.211914 C56.797974,20.063477 56.84778,19.908691 56.8808,19.748047 C56.914307,19.58789 56.92505,19.439453 56.914307,19.301758 C56.902893,19.16455 56.83136,19.061523 56.69867,18.993164 C56.565857,18.901855 56.41089,18.873535 56.234375,18.907227 C56.056824,18.941406 55.902588,18.970215 55.769775,18.993164 C55.52649,19.03955 55.28308,19.223633 55.0401,19.246582 C54.79657,19.27002 54.553406,19.430176 54.310425,19.430176 C54.1333,19.430176 53.93994,19.430176 53.72998,19.430176 C53.51947,19.430176 53.34851,19.33789 53.216003,19.45166 C53.17163,19.498535 53.143738,19.497559 53.132874,19.600098 C53.121704,19.703125 53.09436,19.750977 53.05017,19.820312 C52.87268,20.254883 52.663086,20.660156 52.4198,21.07129 C52.17633,21.48291 51.933533,21.874512 51.690002,22.263672 C51.446777,22.697754 51.19287,23.122559 50.92737,23.545898 C50.661926,23.96875 50.38513,24.384277 50.09839,24.79541 C49.9209,25.04834 49.727417,25.287598 49.518005,25.515625 C49.307434,25.74414 49.13617,26.007324 49.003967,26.3042 C49.001587,26.310059 49.000122,26.319824 48.99823,26.325684 C48.989624,26.336914 48.97882,26.344727 48.97046,26.35498 C48.859253,26.504395 48.782104,26.624023 48.738342,26.71582 C48.36212,27.356445 47.963867,27.963379 47.544495,28.534668 C47.124023,29.106934 46.682007,29.69043 46.217407,30.285156 C46.040405,30.4917 45.874695,30.686035 45.720337,30.86914 C45.56488,31.052734 45.39917,31.246094 45.22278,31.452148 C45.023438,31.635742 44.835083,31.830078 44.65863,32.035645 C44.48163,32.242188 44.28241,32.436523 44.061768,32.61963 C43.884277,32.756348 43.685547,32.910645 43.464905,33.083008 C43.24353,33.253906 43.010925,33.306152 42.768127,33.23633 C42.28125,33.145996 42.259216,32.49414 42.70172,31.280273 C43.033447,30.365234 43.453003,29.507812 43.96173,28.706055 C44.51465,27.836914 45.028687,26.933594 45.5047,25.995117 C45.979614,25.057617 46.504517,24.15332 47.079895,23.283691 C47.411682,22.780273 47.753906,22.219238 48.10797,21.601562 C48.26233,21.327148 48.4234,21.052734 48.589233,20.77832 C48.75482,20.503906 48.871155,20.217773 48.93744,19.919434 C48.981323,19.782227 49.025513,19.62207 49.069763,19.439453 C49.114075,19.256348 49.13617,19.090332 49.13617,18.941406 C49.13617,18.792969 49.097534,18.666992 49.020386,18.564453 C48.942688,18.460938 48.793457,18.409668 48.57263,18.409668 C48.351257,18.409668 48.135742,18.426758 47.925842,18.460938 C47.715393,18.495117 47.499756,18.500977 47.27887,18.478516 C47.079895,18.455566 46.880615,18.438965 46.682007,18.426758 C46.48291,18.415527 46.28369,18.432617 46.085083,18.478516 C45.797485,18.523926 45.542847,18.593262 45.32196,18.684082 C45.167053,18.776367 45.067688,18.867188 45.023438,18.958984 C44.97876,19.050781 44.924133,19.17627 44.857727,19.336426 C44.835083,19.382812 44.79657,19.473633 44.741516,19.61084 C44.685974,19.748047 44.636475,19.896973 44.592163,20.057129 C44.28241,21.064453 43.86255,22.019531 43.332092,22.922363 C42.801514,23.82666 42.270386,24.713379 41.73993,25.583496 C41.36383,26.246582 40.9881,26.841309 40.612305,27.367676 C40.324707,27.779785 40.03717,28.191406 39.75,28.604004 C39.46234,29.015137 39.16382,29.416016 38.854614,29.804688 C38.677063,30.033691 38.51129,30.267578 38.356873,30.5083 C38.202026,30.748535 38.025146,30.971191 37.826416,31.177734 C37.693604,31.314941 37.483093,31.543457 37.196045,31.86377 C36.908264,32.184082 36.58722,32.481445 36.234253,32.756348 C35.880188,33.03076 35.542603,33.226074 35.222534,33.340332 C34.901367,33.45508 34.641968,33.351562 34.44287,33.03076 C34.288025,32.779785 34.27722,32.470703 34.409973,32.10498 C34.542786,31.73877 34.66382,31.4292 34.77478,31.177734 C35.083984,30.53711 35.42163,29.924805 35.786377,29.341797 C36.15143,28.757812 36.521423,28.169922 36.8974,27.57373 C37.273193,26.979004 37.621582,26.384766 37.94214,25.789062 C38.26239,25.194336 38.599854,24.599121 38.953796,24.003906 C39.263123,23.478027 39.57245,22.9458 39.88263,22.408203 C40.192017,21.871094 40.45703,21.3042 40.67871,20.709473 C40.766724,20.45752 40.861023,20.148438 40.960327,19.782227 C41.06006,19.416504 41.054504,19.10791 40.943726,18.855469 C40.899536,18.718262 40.80536,18.62793 40.661804,18.581055 C40.517822,18.535645 40.357727,18.518555 40.181152,18.530273 C40.003662,18.541992 39.827087,18.564453 39.650208,18.598145 C39.473022,18.632812 39.34027,18.649902 39.25226,18.649902 C38.9646,18.649902 38.682556,18.62793 38.40625,18.581055 C38.129944,18.535645 37.84796,18.546875 37.56079,18.615723 C37.18457,18.708008 36.99121,18.890137 36.980408,19.16455 C36.969055,19.439453 36.93042,19.736816 36.864136,20.057129 C36.819824,20.285645 36.759155,20.497559 36.682007,20.691895 C36.60431,20.887207 36.51001,21.086914 36.39984,21.291992 C36.156555,21.819824 35.885803,22.322754 35.58728,22.802734 C35.28882,23.283691 34.995667,23.76416 34.708496,24.244629 C34.39856,24.793457 34.078125,25.336914 33.746582,25.874512 C33.46338,26.334473 33.19214,26.788086 32.92462,27.239258 C32.94397,27.132324 32.96759,27.028809 32.98291,26.921387 C33.027283,26.601562 33.054565,26.166504 33.066406,25.617188 C33.07721,25.06836 33.043762,24.519531 32.96649,23.969727 C32.888855,23.42041 32.739624,22.929688 32.51886,22.49414 C32.297485,22.05957 31.97705,21.795898 31.55719,21.70459 C31.225342,21.61377 31.014648,21.70459 30.926819,21.979004 C30.838257,22.254395 30.816101,22.505371 30.86029,22.734863 C30.993103,23.535645 31.064758,24.28418 31.075928,24.981445 C31.086792,25.681152 30.970947,26.430176 30.728088,27.230469 C30.550598,27.802246 30.340576,28.409668 30.097717,29.049316 C29.854431,29.69043 29.561523,30.291504 29.218811,30.85205 C28.87561,31.412598 28.466919,31.898438 27.991394,32.31006 C27.51587,32.722168 26.946777,32.98535 26.283508,33.100586 C25.70819,33.191895 25.1391,33.197754 24.575012,33.117188 C24.011597,33.03662 23.452759,32.910645 22.900085,32.739258 C22.347351,32.567383 21.799805,32.373047 21.258362,32.15576 C20.716064,31.938965 20.180481,31.73877 19.649841,31.554688 C19.538757,31.509277 19.389526,31.469238 19.202087,31.435059 C19.013855,31.400879 18.831726,31.355469 18.654724,31.29834 C18.47754,31.240723 18.323181,31.166504 18.19049,31.074707 C18.057678,30.983887 18.002258,30.845703 18.02478,30.662598 C18.046387,30.43457 18.1792,30.216309 18.422485,30.010742 C18.665405,29.804688 18.864624,29.62207 19.019592,29.460938 C19.395203,29.072266 19.743408,28.649902 20.064575,28.191406 C20.384766,27.733887 20.699707,27.276855 21.009888,26.819336 C21.517883,26.086914 22.004578,25.331543 22.4693,24.55371 C22.933472,23.775879 23.353455,22.96289 23.729431,22.1167 C23.862488,21.795898 23.983215,21.463867 24.094482,21.121094 C24.20459,20.77832 24.425842,20.514648 24.75763,20.331543 C25.332458,20.010742 25.93518,19.702148 26.565552,19.404785 C27.195435,19.10791 27.809265,18.798828 28.40625,18.478516 C29.666565,17.83789 30.865417,17.066406 32.00482,16.161621 C33.143494,15.2578125 34.221313,14.303223 35.238647,13.29541 C35.74695,12.77002 36.233765,12.231445 36.697876,11.682617 C37.162537,11.133301 37.604675,10.561035 38.024536,9.966309 C38.33435,9.577148 38.621887,9.177246 38.887024,8.765137 C39.152527,8.353516 39.395325,7.930664 39.6167,7.495117 C39.860107,6.992676 40.058716,6.3969727 40.213562,5.710449 C40.368103,5.023926 40.41278,4.366211 40.346375,3.7373047 C40.27997,3.1074219 40.064453,2.5532227 39.699524,2.0717773 C39.334656,1.5917969 38.776367,1.3061523 38.024536,1.2138672 C36.874878,1.0996094 35.708435,1.277832 34.52588,1.7460938 C33.342224,2.215332 32.286743,2.770996 31.35785,3.4106445 C30.097717,4.257324 28.925415,5.263672 27.842285,6.4311523 C26.758423,7.598633 25.774597,8.811523 24.890442,10.069336 C24.337402,10.824219 23.82898,11.603027 23.364685,12.403809 C22.900085,13.20459 22.446655,14.016113 22.004578,14.840332 C21.783447,15.251465 21.573303,15.663574 21.374695,16.076172 C21.17572,16.487305 20.97644,16.899414 20.777344,17.311523 C20.622498,17.631348 20.462402,17.958496 20.296692,18.29004 C20.130981,18.621582 19.937012,18.901855 19.716125,19.130371 C19.494995,19.359375 19.229431,19.524902 18.920044,19.628418 C18.610352,19.730957 18.245483,19.726074 17.825623,19.61084 C16.918884,19.359375 16.144958,18.947266 15.503906,18.375488 C14.862061,17.80371 14.364929,17.134277 14.011353,16.367188 C13.657471,15.6015625 13.441772,14.776855 13.364563,13.896484 C13.286926,13.016113 13.358948,12.128906 13.5802,11.236328 C13.756775,10.458984 14.049622,9.708008 14.459106,8.988281 C14.867798,8.26709 15.365356,7.632324 15.951416,7.083008 C16.537048,6.5341797 17.19519,6.09375 17.924927,5.7617188 C18.654724,5.430664 19.428589,5.263672 20.246765,5.263672 C20.401245,5.263672 20.661438,5.304199 21.026367,5.3842773 C21.391174,5.4648438 21.750427,5.510742 22.10437,5.5219727 C22.457458,5.5336914 22.750854,5.4873047 22.983398,5.3842773 C23.215393,5.2817383 23.276184,5.036133 23.165588,4.6464844 C23.054565,4.303711 22.855896,4.069336 22.568726,3.942871 C22.281067,3.8173828 21.960388,3.7426758 21.606812,3.7197266 C21.252869,3.6967773 20.898682,3.7080078 20.545227,3.7539062 C20.191162,3.800293 19.903564,3.8339844 19.682861,3.8569336 C18.489014,4.040039 17.34961,4.4067383 16.266846,4.955078 C15.338074,5.436035 14.469971,6.0249023 13.663147,6.7231445 C12.855652,7.42041 12.164612,8.20459 11.59021,9.074219 C11.147705,9.738281 10.760803,10.486816 10.429382,11.322266 C10.097351,12.157715 9.931824,12.986816 9.931824,13.810547 C9.931824,14.88623 10.080933,15.904785 10.3793335,16.865234 C10.6779175,17.826172 11.236206,18.672852 12.054565,19.404785 C12.49646,19.817383 12.994141,20.160645 13.546814,20.43457 C14.099487,20.709473 14.674805,20.927246 15.2716675,21.086914 C15.824341,21.224121 16.38269,21.28711 16.946777,21.275879 C17.51062,21.263672 18.057678,21.31543 18.588318,21.4292 C18.610352,21.4292 18.544067,21.607422 18.38971,21.961426 C18.23462,22.316895 18.057678,22.711914 17.858643,23.145996 C17.660034,23.581055 17.47168,23.993652 17.294983,24.381836 C17.117493,24.770508 17.01831,25.000488 16.996643,25.06836 C16.642578,25.800293 16.272034,26.527344 15.885132,27.247559 C15.498169,27.968262 15.017395,28.625977 14.442688,29.22168 C14.177185,29.495605 13.895142,29.62793 13.596619,29.615723 C13.298157,29.604492 12.971497,29.564453 12.618408,29.495605 C11.822449,29.358887 10.992859,29.28955 10.130859,29.28955 C9.268372,29.28955 8.439392,29.347168 7.6433105,29.460938 C7.1344604,29.530273 6.642456,29.58789 6.167053,29.632812 C5.6914062,29.679688 5.199524,29.793457 4.691101,29.976562 C4.248596,30.136719 3.823059,30.343262 3.4142456,30.594727 C3.0047607,30.845703 2.6734009,31.143066 2.4191284,31.486816 C2.164978,31.830078 2.0214233,32.20703 1.987915,32.61963 C1.9550171,33.03076 2.104187,33.489258 2.435669,33.9917 C2.8555298,34.609863 3.3918457,34.993164 4.0443115,35.1416 C4.69635,35.290527 5.35437,35.399414 6.0178223,35.467773 C6.6151733,35.51416 7.189514,35.51953 7.7426147,35.484863 C8.2948,35.450684 8.858704,35.376953 9.434204,35.262207 C10.053162,35.125 10.655762,34.965332 11.241882,34.78125 C11.827576,34.59912 12.397156,34.36963 12.949829,34.095215 C13.458374,33.84424 13.939392,33.648926 14.3927,33.51123 C14.845703,33.37451 15.359741,33.39746 15.934937,33.58008 C16.642578,33.83203 17.322266,34.095215 17.974976,34.36963 C18.626953,34.644043 19.317871,34.839355 20.04779,34.953613 C20.622498,35.04541 21.213867,35.16211 21.822449,35.2417 C22.430176,35.323242 23.032776,35.393555 23.629639,35.393555 C23.629639,35.393555 23.663147,35.393555 23.663147,35.393555 C24.923462,35.393555 26.134277,35.04248 27.295227,34.538574 C28.455627,34.035645 29.47821,33.310547 30.36322,32.39453 C30.502563,32.23828 30.631042,32.067383 30.760498,31.905762 C30.74646,31.97461 30.723816,32.039062 30.711548,32.10791 C30.612366,32.65674 30.628784,33.21631 30.761475,33.788574 C30.805237,34.01758 30.899414,34.26758 31.043396,34.541992 C31.187073,34.816406 31.35846,35.01123 31.557434,35.12549 C31.667847,35.193848 31.773071,35.251465 31.872375,35.296875 C31.971802,35.342285 32.076843,35.38867 32.18744,35.433594 C32.430786,35.52539 32.701477,35.56543 33.0,35.55371 C33.29895,35.541504 33.56909,35.51416 33.81311,35.467773 C34.232483,35.376953 34.619934,35.19922 34.97351,34.936035 C35.326965,34.67285 35.670288,34.416016 36.002014,34.163574 C36.59906,33.683105 37.196045,33.111816 37.792908,32.447266 C37.992126,32.265137 38.184998,32.064453 38.373352,31.84668 C38.56122,31.630371 38.699158,31.475586 38.788086,31.3833 C38.986816,31.131836 39.097412,31.02295 39.119568,31.057617 C39.141174,31.091797 39.108276,31.314941 39.020264,31.726074 C38.90918,32.16211 38.84839,32.66504 38.837646,33.23633 C38.826233,33.809082 38.9646,34.27832 39.25226,34.644043 C39.561646,35.056152 39.981934,35.308105 40.512573,35.399414 C41.043518,35.49121 41.52942,35.479492 41.971924,35.364746 C42.635193,35.18213 43.24353,34.850098 43.796204,34.36963 C44.12439,34.084473 44.427002,33.787598 44.716125,33.487305 C44.71466,33.501465 44.709534,33.51416 44.70862,33.529297 C44.675232,33.929688 44.746765,34.3125 44.924133,34.678223 C45.167053,35.11328 45.554016,35.316895 46.085083,35.430176 C46.19525,35.4541 46.305786,35.393555 46.41638,35.393555 C46.52716,35.393555 46.637268,35.393555 46.74829,35.393555 C47.124023,35.393555 47.483337,35.356934 47.82605,35.208008 C48.168762,35.05957 48.494934,34.90625 48.804626,34.677246 C49.091797,34.47168 49.357056,34.254883 49.60083,33.9917 C49.84381,33.729004 50.08673,33.467773 50.330505,33.19336 C50.529236,32.941895 50.73346,32.706055 50.943848,32.47705 C51.15387,32.249023 51.358704,32.01123 51.5578,31.75879 C51.601624,31.712402 51.628967,31.674316 51.640625,31.639648 C51.65149,31.60498 51.678772,31.611328 51.72345,31.657715 C51.789734,31.70459 51.839355,31.80664 51.872864,31.966797 C51.90564,32.126953 51.933533,32.24121 51.955566,32.31006 C52.110046,32.859375 52.325623,33.379883 52.60254,33.87207 C52.878723,34.36377 53.271057,34.759277 53.779846,35.056152 C54.022766,35.19336 54.28253,35.284668 54.559326,35.330566 C54.835327,35.376953 55.106384,35.376953 55.37201,35.330566 C55.61493,35.308105 55.88617,35.256836 56.18451,35.17627 C56.483032,35.09619 56.753723,34.976074 56.997192,34.816406 C57.417053,34.563965 57.82605,34.260742 58.224426,33.90625 C58.622253,33.552246 58.975708,33.168945 59.2854,32.756348 C59.418213,32.57373 59.567566,32.401855 59.733154,32.242188 C59.899414,32.08203 60.05945,31.910156 60.214294,31.726074 C60.48181,31.3667 60.737366,31.02002 60.9964,30.668457 C60.93976,30.928223 60.892212,31.188477 60.861572,31.452148 C60.784424,32.11621 60.817383,32.751465 60.960876,33.356934 C61.072083,33.825684 61.302307,34.23535 61.645508,34.58838 C62.083862,35.441406 62.968872,35.6416 63.8313,35.592285 C64.280396,35.62793 64.72339,35.58252 65.15704,35.433594 C65.55249,35.296875 65.93762,35.118652 66.3136,34.904785 C72.221375,31.908691 75.93475,23.374512 76.80859,22.384277 C77.02899,22.221191 77.25525,22.096191 77.39557,22.1167 C77.616455,22.163086 77.82684,22.242188 78.02594,22.356445 C78.22504,22.47168 78.43457,22.528809 78.65582,22.528809 C78.72223,22.528809 78.81641,22.51709 78.937744,22.49414 C79.059326,22.47168 79.16998,22.459473 79.269775,22.459473 C79.36908,22.459473 79.44629,22.476562 79.50183,22.51123 C79.556946,22.54541 79.5517,22.631348 79.48541,22.768555 C79.41901,22.95166 79.24713,23.145996 78.97125,23.35205 C78.69446,23.557617 78.48999,23.729492 78.35742,23.8667 C77.583435,24.668457 76.80939,25.51416 76.03607,26.406738 C75.26172,27.299316 74.6311,28.260254 74.14545,29.28955 C73.96796,29.632812 73.802246,29.999512 73.64783,30.388184 C73.49286,30.777344 73.36023,31.166504 73.24957,31.554688 C73.138855,31.944824 73.07257,32.339355 73.050964,32.739258 C73.0282,33.140625 73.07257,33.5459 73.18353,33.95752 C73.27161,34.300293 73.42102,34.581543 73.63129,34.79883 C73.84082,35.0166 74.07892,35.18213 74.344055,35.296387 C74.6095,35.41162 74.902405,35.479492 75.22296,35.501953 C75.54364,35.52539 75.85858,35.51416 76.168274,35.467773 C77.07501,35.284668 77.87683,34.901855 78.573,34.31787 C79.269775,33.734375 79.904785,33.100586 80.4801,32.413086 C80.74567,32.092773 81.01105,31.75586 81.276306,31.400879 C81.52185,31.072266 81.75537,30.75 81.98236,30.43164 C81.9212,30.720703 81.87317,31.003418 81.83966,31.280273 C81.79498,31.646484 81.7785,32.041016 81.789734,32.464844 C81.8006,32.88867 81.86139,33.293945 81.97247,33.683105 C82.08264,34.072754 82.254395,34.4209 82.48663,34.73047 C82.71863,35.039062 83.03357,35.262207 83.43182,35.399414 C83.43182,35.399414 83.49811,35.433594 83.49811,35.433594 C84.00665,35.57129 84.53723,35.56543 85.089905,35.416016 C85.64258,35.26758 86.14026,35.056152 86.58276,34.78125 C87.44513,34.27832 88.21869,33.648926 88.90448,32.893555 C89.05896,32.710938 89.20813,32.539062 89.352234,32.378906 C89.49591,32.21924 89.65588,32.059082 89.832886,31.898438 C89.9209,31.807129 90.0155,31.698242 90.11481,31.572754 C90.2146,31.447266 90.319275,31.372559 90.42975,31.34961 C90.45184,31.464355 90.4411,31.578613 90.39673,31.692383 C90.35205,31.807129 90.30841,31.921387 90.26422,32.035645 C90.153564,32.539062 90.148315,33.05371 90.24762,33.58008 C90.347046,34.106445 90.584656,34.552734 90.96088,34.918457 C91.35864,35.330566 91.80066,35.52539 92.28754,35.501953 C92.773315,35.479492 93.26019,35.348633 93.74689,35.10742 C94.23279,34.867188 94.6922,34.558594 95.123535,34.180664 C95.55469,33.803223 95.91339,33.45508 96.20105,33.13379 C96.62103,32.676758 97.03577,32.21338 97.444885,31.743652 C97.85388,31.274902 98.25775,30.800293 98.65558,30.320312 C98.82745,30.118652 98.99414,29.918457 99.156006,29.71875 C98.945496,30.378906 98.795044,31.04248 98.70563,31.709473 C98.584045,32.614258 98.66699,33.43164 98.9541,34.163574 C99.24127,34.895996 99.87164,35.354004 100.84473,35.53662 C101.28674,35.58203 101.69586,35.57129 102.07202,35.501953 C102.60248,35.41162 103.08374,35.24463 103.51489,35.004883 C103.94562,34.76465 104.35486,34.478027 104.74182,34.146484 C105.12866,33.81494 105.49353,33.45996 105.83624,33.083008 C106.179016,32.70459 106.5166,32.321777 106.84802,31.933105 C106.958496,31.818848 107.058044,31.709473 107.14636,31.606445 C107.2345,31.503418 107.29004,31.4292 107.31268,31.3833 C107.356445,31.291992 107.41199,31.246094 107.47839,31.246094 C107.43353,31.589844 107.40076,31.86377 107.3786,32.069824 C107.356445,32.276855 107.33423,32.47705 107.31268,32.67041 C107.29004,32.865723 107.279175,32.98535 107.279175,33.03076 C107.279175,33.351562 107.32355,33.671875 107.41199,33.9917 C107.50006,34.3125 107.65491,34.586914 107.87604,34.816406 C108.185425,35.13672 108.56152,35.308105 109.00403,35.330566 C109.44629,35.354004 109.854675,35.330566 110.23151,35.262207 C110.562805,35.19336 110.866516,35.08496 111.14325,34.936035 C111.41968,34.78711 111.67908,34.59912 111.92285,34.36963 C112.9397,33.47754 113.912964,32.521973 114.8418,31.503418 C115.20984,31.100098 115.56244,30.68457 115.91315,30.268555 C115.809204,30.726562 115.743164,31.183594 115.72064,31.641113 C115.68713,32.315918 115.78143,32.95117 116.00256,33.5459 C116.22345,34.141113 116.6543,34.6333 117.29584,35.021484 C117.75336,35.301758 118.251465,35.40332 118.78778,35.45996 C119.29187,35.580566 119.85394,35.89209 120.362854,35.393555 C120.363464,35.393555 120.363464,35.393555 120.363464,35.393555 C120.36432,35.393555 120.36481,35.393555 120.365234,35.393555 C120.58972,35.393555 120.80444,35.368164 120.99805,35.314453 C121.05676,35.299316 121.11566,35.3125 121.17505,35.29492 C121.391174,35.230957 121.57239,35.18213 121.70349,35.132812 C121.72662,35.124023 121.750244,35.12549 121.7738,35.11621 C121.791626,35.109375 121.808655,35.10498 121.82605,35.09668 C121.89337,35.069824 121.93286,35.0542 121.93286,35.0542 C121.964355,35.039062 121.995056,35.02295 122.026184,35.00879 C122.80939,34.658203 123.52966,34.220215 124.17853,33.683105 C124.18701,33.67578 124.190674,33.668945 124.19867,33.662598 C128.9643,30.033203 131.95612,23.259766 132.72858,22.384277 C132.94885,22.220703 133.17548,22.096191 133.3158,22.1167 C133.53644,22.163086 133.74683,22.242188 133.94617,22.356445 C134.14514,22.47168 134.35468,22.528809 134.57593,22.528809 C134.64233,22.528809 134.73639,22.51709 134.85791,22.49414 C134.97937,22.47168 135.08997,22.459473 135.18976,22.459473 C135.28906,22.459473 135.36621,22.476562 135.42188,22.51123 C135.47693,22.54541 135.47192,22.631348 135.4054,22.768555 C135.33911,22.95166 135.16724,23.145996 134.89124,23.35205 C134.61444,23.557617 134.41028,23.729492 134.27747,23.8667 C133.50342,24.668457 132.72955,25.51416 131.95612,26.406738 C131.1817,27.299316 130.55133,28.260254 130.06543,29.28955 C129.88806,29.632812 129.72223,29.999512 129.56787,30.388184 C129.41302,30.777344 129.28021,31.166504 129.16943,31.554688 C129.05884,31.944824 128.99255,32.339355 128.97095,32.739258 C128.9483,33.140625 128.99255,33.5459 129.10376,33.95752 C129.19165,34.300293 129.341,34.581543 129.55139,34.79883 C129.76086,35.0166 129.99915,35.18213 130.26416,35.296387 C130.52954,35.41162 130.82239,35.479492 131.14307,35.501953 C131.46362,35.52539 131.77856,35.51416 132.08832,35.467773 C132.99512,35.284668 133.79681,34.901855 134.4931,34.31787 C135.18976,33.734375 135.82489,33.100586 136.4002,32.413086 C136.66571,32.092773 136.93115,31.75586 137.19617,31.400879 C137.46179,31.046875 137.71545,30.696777 137.95935,30.354004 C138.26868,29.964844 138.57806,29.570312 138.88776,29.169434 C139.19757,28.769043 139.50684,28.363281 139.81653,27.950684 C139.88306,27.882812 140.01001,27.723145 140.198,27.470215 C140.38574,27.219238 140.55719,26.950684 140.71204,26.664062 C140.86652,26.378418 140.96106,26.115234 140.99396,25.874512 C141.02747,25.634277 140.91095,25.503418 140.64563,25.47998 ZM121.59119,25.651367 C121.712585,25.40039 121.84534,25.160156 121.98938,24.930664 C122.132996,24.702637 122.22656,24.55371 122.270935,24.484863 C122.58075,24.003906 122.901306,23.541016 123.233215,23.094727 C123.5647,22.648438 123.90747,22.19629 124.26135,21.738281 C124.37152,21.601562 124.49335,21.459473 124.62616,21.310059 C124.758484,21.161133 124.8913,21.006836 125.023926,20.845703 C125.2005,20.664062 125.42236,20.440918 125.68738,20.177246 C125.95294,19.91504 126.21796,19.748047 126.48334,19.680176 C126.682495,19.63379 126.84259,19.696777 126.96442,19.868164 C127.08557,20.04004 127.135376,20.217773 127.11371,20.40039 C127.091064,20.85791 126.95886,21.3042 126.715515,21.738281 C126.47211,22.174316 126.21796,22.562988 125.95294,22.905762 C125.510315,23.501465 125.007385,24.073242 124.44354,24.62207 C123.87952,25.171387 123.27704,25.640137 122.63574,26.029785 C122.59161,26.051758 122.46454,26.121094 122.254395,26.234375 C122.04407,26.350098 121.85095,26.430176 121.67407,26.475586 C121.45282,26.521484 121.35339,26.458496 121.37555,26.28711 C121.397156,26.115234 121.46912,25.904297 121.59119,25.651367 ZM26.217224,17.345703 C26.637085,16.54541 27.040588,15.732422 27.42743,14.908691 C27.814392,14.0859375 28.207031,13.272461 28.605347,12.47168 C29.069519,11.510742 29.555298,10.589844 30.064331,9.708008 C30.572632,8.828613 31.103699,7.9414062 31.656372,7.0493164 C32.09851,6.3398438 32.56311,5.64209 33.04944,4.955078 C33.535828,4.2695312 34.121765,3.6855469 34.80719,3.2050781 C34.940125,3.1132812 35.16638,2.9702148 35.48755,2.7753906 C35.80774,2.581543 36.13971,2.4208984 36.48224,2.2949219 C36.82495,2.1699219 37.140137,2.118164 37.42755,2.1411133 C37.714844,2.1635742 37.91394,2.324707 38.024536,2.621582 C38.178894,3.0332031 38.212402,3.496582 38.12445,4.010742 C38.03589,4.526367 37.880432,5.036133 37.65973,5.538086 C37.438416,6.0424805 37.195435,6.522461 36.92993,6.9799805 C36.664978,7.438965 36.421204,7.838379 36.200256,8.181641 C35.603394,9.120117 34.950867,10.040527 34.243713,10.944336 C33.535828,11.849121 32.77301,12.711914 31.954895,13.536133 C31.136719,14.359863 30.279724,15.120605 29.384583,15.817871 C28.489014,16.51709 27.554626,17.117676 26.58197,17.620117 C26.40448,17.711914 26.272156,17.752441 26.183716,17.740234 C26.095276,17.729492 26.106018,17.598145 26.217224,17.345703 ZM10.827087,32.378906 C10.517334,32.837402 10.1026,33.226074 9.583374,33.5459 C9.063721,33.86621 8.505249,34.083984 7.908203,34.197754 C7.2893066,34.3125 6.6810913,34.3125 6.0841064,34.197754 C5.4871826,34.083984 4.9782715,33.797363 4.5583496,33.340332 C4.359619,33.13379 4.2268066,32.854004 4.1605225,32.499023 C4.0942383,32.14453 4.149292,31.841309 4.326355,31.589844 C4.4590454,31.3833 4.6469116,31.224121 4.8901978,31.109375 C5.1331177,30.994629 5.3930054,30.91504 5.6698,30.86914 C5.9456787,30.823242 6.221985,30.811523 6.4987793,30.83496 C6.7752686,30.857422 7.0238037,30.88086 7.245056,30.902832 C7.3778687,30.92627 7.665039,30.971191 8.107544,31.041016 C8.549438,31.109375 8.997192,31.200195 9.450684,31.314941 C9.903992,31.4292 10.285278,31.578613 10.594971,31.76123 C10.904175,31.944824 10.981567,32.149902 10.827087,32.378906 ZM52.64569,23.145996 C52.64569,23.192383 52.554382,23.237793 52.532776,23.283691 C52.334045,24.15332 52.13916,25.03955 52.028503,25.94336 C51.917908,26.847656 51.842712,27.756836 51.842712,28.671875 C51.842712,28.946777 51.82196,29.21582 51.800354,29.479004 C51.77771,29.7417 51.68402,29.999512 51.52954,30.250977 C51.39685,30.503418 51.2334,30.725586 51.045532,30.919922 C50.857666,31.114746 50.674194,31.303223 50.497498,31.486816 C50.32013,31.67041 50.1369,31.853027 49.949036,32.035645 C49.761414,32.21924 49.55658,32.391113 49.335815,32.55127 C49.269287,32.59619 49.158325,32.676758 49.003967,32.790527 C48.84851,32.905273 48.693665,32.99756 48.539185,33.06543 C48.384277,33.13379 48.246033,33.15674 48.124878,33.13379 C48.00305,33.111816 47.930847,32.99756 47.90924,32.790527 C47.90924,32.676758 47.920227,32.567383 47.94226,32.464844 C47.963867,32.362305 47.963867,32.253906 47.94226,32.13867 C47.897583,31.933105 47.804016,31.732422 47.66034,31.538086 C47.516357,31.343262 47.333923,31.234863 47.11328,31.211914 C46.968323,31.195312 46.81958,31.203613 46.668884,31.223145 C46.700012,31.184082 46.733704,31.14795 46.76483,31.109375 C47.23987,30.513672 47.710205,29.919922 48.174377,29.324219 C48.417297,29.027344 48.644165,28.740234 48.854126,28.466309 C49.064026,28.191406 49.25763,27.894531 49.434753,27.57373 C49.501038,27.481934 49.58368,27.367676 49.683655,27.230469 C49.78296,27.09375 49.871094,26.944824 49.94879,26.78418 C49.9718,26.73584 49.987793,26.689941 50.005676,26.64209 C50.20807,26.360352 50.384766,26.118164 50.529236,25.92627 C50.749878,25.628906 50.949097,25.331543 51.126587,25.033691 C51.30304,24.736328 51.479675,24.428223 51.657166,24.106934 C51.767334,23.923828 51.963074,23.72461 52.08551,23.506348 C52.206055,23.28955 52.64569,23.123047 52.64569,23.009277 C52.64569,23.009277 52.64569,23.145996 52.64569,23.145996 ZM91.524475,27.59082 C90.88312,28.540527 90.20862,29.473633 89.501465,30.388184 C89.08118,30.91504 88.63342,31.412598 88.1579,31.881348 C87.682495,32.350098 87.14661,32.734375 86.549255,33.03076 C86.19537,33.191895 85.874695,33.242676 85.587524,33.185547 C85.299866,33.128906 85.06787,32.905273 84.891174,32.516113 C84.78021,32.287598 84.742065,32.041016 84.77484,31.77832 C84.80835,31.515137 84.86865,31.246094 84.9577,30.971191 C85.04559,30.696777 85.15057,30.43457 85.2724,30.182129 C85.39343,29.930664 85.49902,29.702148 85.587524,29.495605 C85.83032,29.015137 86.07385,28.545898 86.3172,28.088379 C86.56012,27.631836 86.825745,27.185547 87.11316,26.75 C87.40045,26.31543 87.677246,25.88086 87.94226,25.44629 C88.207825,25.010742 88.494995,24.587402 88.80469,24.175293 C89.335815,23.42041 89.91577,22.642578 90.54614,21.841797 C91.17651,21.041016 91.88928,20.412598 92.68536,19.953613 C92.972534,19.794434 93.315735,19.667969 93.71338,19.57666 C94.111694,19.48584 94.431885,19.59961 94.67578,19.919434 C94.87427,20.194336 94.946045,20.503906 94.89142,20.845703 C94.83588,21.189453 94.76361,21.510742 94.67578,21.807617 C94.49829,22.311035 94.28833,22.791992 94.04541,23.249023 C93.80194,23.707031 93.55853,24.16504 93.315735,24.62207 C92.76257,25.651367 92.16571,26.641602 91.524475,27.59082 ZM109.88306,24.381836 C109.6947,24.725098 109.52344,25.033691 109.36902,25.309082 C108.859985,26.269531 108.2959,27.185547 107.67743,28.054688 C107.058044,28.924316 106.41681,29.77002 105.75342,30.594727 C105.26715,31.189941 104.763855,31.69336 104.24469,32.253906 C103.72449,32.81494 103.11102,33.398438 102.4035,33.398438 C102.4035,33.398438 102.37048,33.398438 102.37048,33.398438 C101.86145,33.89746 101.40314,33.63867 100.9939,33.35205 C100.58441,33.065918 100.413574,32.65088 100.47986,32.033203 C100.546265,31.163574 100.78357,30.369629 101.19318,29.614746 C101.601685,28.858887 102.038635,28.160156 102.503296,27.496094 C103.033875,26.740723 103.56964,25.996582 104.11188,25.252441 C104.65326,24.509277 105.23364,23.784668 105.85321,23.075195 C106.0741,22.82373 106.33911,22.521484 106.6488,22.166992 C106.958496,21.8125 107.29004,21.475586 107.64398,21.155273 C107.99768,20.83545 108.368164,20.565918 108.75513,20.348145 C109.14197,20.131348 109.52344,20.035156 109.89966,20.057129 C110.16498,20.103027 110.39148,20.234375 110.579346,20.45166 C110.76721,20.669922 110.87213,20.903809 110.894775,21.155273 C110.91638,21.499512 110.87775,21.853516 110.77844,22.219238 C110.67914,22.58496 110.551575,22.95166 110.39697,23.31836 C110.24213,23.68457 110.07031,24.038574 109.88306,24.381836 Z"/>
</svg>